<svg id="Layer_1" data-name="Layer 1" xmlns="http://www.w3.org/2000/svg" width="230.04" height="62.05" viewBox="0 0 230.04 62.05">
  <defs>
    <style>
      .cls-1 {
        fill: #14cc9a;
      }

      .cls-2 {
        fill: #000233;
      }
    </style>
  </defs>
  <g>
    <path class="cls-1" d="M81.68,55.42H54.18a27.5,27.5,0,1,1,27.5-27.5Z"/>
    <path class="cls-2" d="M55,55.42H40V27.92a12.5,12.5,0,0,0-25,0v27.5H0V27.92a27.5,27.5,0,0,1,55,0Z"/>
  </g>
  <g>
    <path class="cls-2" d="M125.86,25.87h-6.22L109.25,10.14V25.87H103V.36h6.21l10.39,15.81V.36h6.22Z"/>
    <path class="cls-2" d="M146.57,8.43a4.58,4.58,0,0,0-2-1.94,6.45,6.45,0,0,0-3-.68,6.24,6.24,0,0,0-4.84,2,7.53,7.53,0,0,0-1.81,5.29,7.62,7.62,0,0,0,1.9,5.51,7,7,0,0,0,5.25,2,6.31,6.31,0,0,0,3.87-1.17,6.51,6.51,0,0,0,2.31-3.34h-7.88V11.48h13.51v5.78a12.18,12.18,0,0,1-2.34,4.32,12.31,12.31,0,0,1-4.2,3.24,13,13,0,0,1-5.74,1.23,13.62,13.62,0,0,1-6.74-1.65,11.72,11.72,0,0,1-4.61-4.6,13.39,13.39,0,0,1-1.66-6.72,13.52,13.52,0,0,1,1.66-6.74,11.76,11.76,0,0,1,4.59-4.61A13.46,13.46,0,0,1,141.56.07a13.05,13.05,0,0,1,7.72,2.22,10.48,10.48,0,0,1,4.16,6.14Z"/>
    <path class="cls-2" d="M162.07,24.45a12.46,12.46,0,0,1-4.76-4.66A13,13,0,0,1,155.55,13a12.92,12.92,0,0,1,1.76-6.72,12.57,12.57,0,0,1,4.76-4.65,13.86,13.86,0,0,1,13.19,0A12.33,12.33,0,0,1,180,6.32,13.19,13.19,0,0,1,181.71,13,13.11,13.11,0,0,1,180,19.79a12.35,12.35,0,0,1-4.72,4.66,13.75,13.75,0,0,1-13.17,0Zm11.48-6A7.73,7.73,0,0,0,175.38,13a7.7,7.7,0,0,0-1.83-5.39,6.26,6.26,0,0,0-4.89-2,6.35,6.35,0,0,0-4.92,2A7.71,7.71,0,0,0,161.9,13a7.72,7.72,0,0,0,1.84,5.4,6.94,6.94,0,0,0,9.81,0Z"/>
    <path class="cls-2" d="M184.67,25.2a3.13,3.13,0,0,1-1-2.38,3.24,3.24,0,0,1,1-2.44,3.74,3.74,0,0,1,2.67-1,3.68,3.68,0,0,1,2.63,1,3.24,3.24,0,0,1,1,2.44,3.13,3.13,0,0,1-1,2.38,3.7,3.7,0,0,1-2.63,1A3.77,3.77,0,0,1,184.67,25.2Z"/>
    <path class="cls-2" d="M102.73,43.36a6.89,6.89,0,0,1,6.15-3.68,6.46,6.46,0,0,1,3.09.7,6.32,6.32,0,0,1,2.12,1.73V39.93h3.13v15h-3.13V52.71a6.17,6.17,0,0,1-2.16,1.77,6.65,6.65,0,0,1-3.1.71,6.57,6.57,0,0,1-3.55-1,7.08,7.08,0,0,1-2.55-2.78,8.63,8.63,0,0,1-.94-4A8.39,8.39,0,0,1,102.73,43.36Zm10.71,1.36A4.45,4.45,0,0,0,111.77,43a4.4,4.4,0,0,0-2.24-.6,4.44,4.44,0,0,0-2.23.58,4.55,4.55,0,0,0-1.68,1.72,5.46,5.46,0,0,0-.64,2.69,5.66,5.66,0,0,0,.64,2.72,4.57,4.57,0,0,0,1.69,1.79,4.32,4.32,0,0,0,2.22.61,4.37,4.37,0,0,0,3.91-2.36,6,6,0,0,0,0-5.41Z"/>
    <path class="cls-2" d="M120.67,43.35a6.62,6.62,0,0,1,2.6-2.72,7.59,7.59,0,0,1,3.81-1,7.43,7.43,0,0,1,4.51,1.3A6.37,6.37,0,0,1,134,44.67h-3.36a3.52,3.52,0,0,0-1.3-1.75,3.94,3.94,0,0,0-2.27-.62,3.74,3.74,0,0,0-3,1.35,5.64,5.64,0,0,0-1.14,3.77,5.74,5.74,0,0,0,1.14,3.79,3.72,3.72,0,0,0,3,1.36,3.45,3.45,0,0,0,3.57-2.37H134a6.73,6.73,0,0,1-2.46,3.64,7.22,7.22,0,0,1-4.47,1.35,7.49,7.49,0,0,1-3.81-1,6.71,6.71,0,0,1-2.6-2.73,9.28,9.28,0,0,1,0-8.14Z"/>
    <path class="cls-2" d="M136.47,43.36a6.86,6.86,0,0,1,6.15-3.68,6.46,6.46,0,0,1,3.09.7,6.18,6.18,0,0,1,2.11,1.73V39.93H151v15h-3.14V52.71a6,6,0,0,1-2.15,1.77,6.66,6.66,0,0,1-3.11.71,6.53,6.53,0,0,1-3.54-1,7.08,7.08,0,0,1-2.55-2.78,8.63,8.63,0,0,1-.94-4A8.39,8.39,0,0,1,136.47,43.36Zm10.71,1.36A4.45,4.45,0,0,0,145.51,43a4.4,4.4,0,0,0-2.24-.6A4.44,4.44,0,0,0,141,43a4.55,4.55,0,0,0-1.68,1.72,5.35,5.35,0,0,0-.64,2.69,5.55,5.55,0,0,0,.64,2.72,4.57,4.57,0,0,0,1.69,1.79,4.32,4.32,0,0,0,2.22.61,4.37,4.37,0,0,0,3.91-2.36,6,6,0,0,0,0-5.41Z"/>
    <path class="cls-2" d="M154.4,43.36a6.89,6.89,0,0,1,6.18-3.68,7,7,0,0,1,2.9.64,6,6,0,0,1,2.27,1.7V34.77h3.14V54.94h-3.14V52.68a5.68,5.68,0,0,1-2.11,1.8,7,7,0,0,1-6.67-.29,7,7,0,0,1-2.57-2.78,8.63,8.63,0,0,1-.94-4A8.39,8.39,0,0,1,154.4,43.36Zm10.71,1.36A4.45,4.45,0,0,0,163.44,43a4.4,4.4,0,0,0-2.24-.6A4.44,4.44,0,0,0,159,43a4.55,4.55,0,0,0-1.68,1.72,5.46,5.46,0,0,0-.64,2.69,5.66,5.66,0,0,0,.64,2.72A4.57,4.57,0,0,0,159,51.88a4.32,4.32,0,0,0,2.22.61,4.37,4.37,0,0,0,3.91-2.36,6,6,0,0,0,0-5.41Z"/>
    <path class="cls-2" d="M186.09,48.59H174.61a4.15,4.15,0,0,0,4.28,4,3.63,3.63,0,0,0,3.54-2.1h3.36a6.86,6.86,0,0,1-2.47,3.4,7.25,7.25,0,0,1-4.43,1.32,7.7,7.7,0,0,1-3.85-1,6.9,6.9,0,0,1-2.68-2.73,8.36,8.36,0,0,1-1-4.07,8.46,8.46,0,0,1,.94-4.07A6.53,6.53,0,0,1,175,40.63a7.94,7.94,0,0,1,3.91-1,7.63,7.63,0,0,1,3.79.93,6.54,6.54,0,0,1,2.59,2.6,7.82,7.82,0,0,1,.93,3.86A9.94,9.94,0,0,1,186.09,48.59ZM183,46.08a3.57,3.57,0,0,0-1.22-2.75,4.39,4.39,0,0,0-3-1,4,4,0,0,0-2.75,1,4.29,4.29,0,0,0-1.36,2.76Z"/>
    <path class="cls-2" d="M210.05,40.42a5.22,5.22,0,0,1,2.21,2.18,7,7,0,0,1,.81,3.48v8.86H210V46.55a4.34,4.34,0,0,0-1-3.09,4.07,4.07,0,0,0-5.52,0,4.3,4.3,0,0,0-1,3.09v8.39h-3.08V46.55a4.34,4.34,0,0,0-1-3.09,3.58,3.58,0,0,0-2.75-1.08,3.62,3.62,0,0,0-2.77,1.08,4.3,4.3,0,0,0-1,3.09v8.39H188.7v-15h3.11v1.71a5.18,5.18,0,0,1,1.93-1.44,6.07,6.07,0,0,1,2.51-.52,6.8,6.8,0,0,1,3.22.76,5.28,5.28,0,0,1,2.18,2.21,5,5,0,0,1,2.12-2.17,6.35,6.35,0,0,1,3.11-.8A6.71,6.71,0,0,1,210.05,40.42Z"/>
    <path class="cls-2" d="M230,39.93,220.78,62h-3.22l3.05-7.3L214.7,39.93h3.46l4.22,11.44,4.39-11.44Z"/>
  </g>
</svg>
