<svg xmlns="http://www.w3.org/2000/svg" viewBox="0 0 500 500"><g id="freepik--background-complete--inject-2"><rect x="358.97" y="258.68" width="72.26" height="55.74" transform="translate(790.2 573.1) rotate(180)" style="fill:#ebebeb"></rect><rect x="364.14" y="299.71" width="8.71" height="9.84" transform="translate(736.98 609.26) rotate(180)" style="fill:#fff"></rect><rect x="400.98" y="258.82" width="8.21" height="11.89" style="fill:#fafafa"></rect><rect x="400.98" y="302.36" width="8.21" height="11.89" style="fill:#fafafa"></rect><path d="M377,314.8c-.13,0-.23-12.26-.23-27.38s.1-27.38.23-27.38.23,12.26.23,27.38S377.13,314.8,377,314.8Z" style="fill:#e0e0e0"></path><rect x="329.5" y="314.23" width="124.68" height="96.17" transform="translate(783.68 724.63) rotate(180)" style="fill:#ebebeb"></rect><rect x="338.41" y="385.02" width="15.02" height="16.98" transform="translate(691.84 787.03) rotate(180)" style="fill:#fff"></rect><rect x="401.98" y="314.48" width="14.16" height="20.52" style="fill:#fafafa"></rect><rect x="401.98" y="389.59" width="14.16" height="20.52" style="fill:#fafafa"></rect><path d="M360.62,411.06c-.22,0-.4-21.15-.4-47.24s.18-47.24.4-47.24.39,21.15.39,47.24S360.84,411.06,360.62,411.06Z" style="fill:#e0e0e0"></path><polygon points="450.22 114.21 456.9 127.74 471.83 129.91 461.03 140.45 463.58 155.32 450.22 148.3 436.86 155.32 439.41 140.45 428.61 129.91 443.54 127.74 450.22 114.21" style="fill:#ebebeb"></polygon><polygon points="52.51 288.97 56.72 297.5 66.13 298.86 59.32 305.5 60.93 314.88 52.51 310.45 44.09 314.88 45.7 305.5 38.89 298.86 48.3 297.5 52.51 288.97" style="fill:#ebebeb"></polygon><polygon points="57.73 214.66 67.08 233.6 87.98 236.64 72.86 251.38 76.43 272.2 57.73 262.37 39.04 272.2 42.61 251.38 27.48 236.64 48.38 233.6 57.73 214.66" style="fill:#ebebeb"></polygon><polygon points="444.27 175.32 448.3 183.49 457.31 184.8 450.79 191.15 452.33 200.12 444.27 195.89 436.21 200.12 437.75 191.15 431.23 184.8 440.24 183.49 444.27 175.32" style="fill:#ebebeb"></polygon><polygon points="312.05 43.07 316.08 51.23 325.09 52.54 318.57 58.9 320.11 67.87 312.05 63.63 303.99 67.87 305.53 58.9 299.01 52.54 308.02 51.23 312.05 43.07" style="fill:#ebebeb"></polygon><polygon points="404.22 130.41 406.86 135.75 412.76 136.61 408.49 140.77 409.5 146.64 404.22 143.87 398.95 146.64 399.96 140.77 395.69 136.61 401.59 135.75 404.22 130.41" style="fill:#ebebeb"></polygon><polygon points="160.92 400.11 166.06 410.51 177.54 412.18 169.23 420.28 171.2 431.72 160.92 426.32 150.65 431.72 152.61 420.28 144.3 412.18 155.79 410.51 160.92 400.11" style="fill:#ebebeb"></polygon><polygon points="174.48 389.76 176.6 394.06 181.35 394.75 177.91 398.1 178.72 402.83 174.48 400.59 170.24 402.83 171.05 398.1 167.61 394.75 172.36 394.06 174.48 389.76" style="fill:#ebebeb"></polygon></g><g id="freepik--Stars--inject-2"><polygon points="364.13 349.92 368.65 359.07 378.75 360.54 371.44 367.66 373.17 377.72 364.13 372.97 355.1 377.72 356.83 367.66 349.52 360.54 359.62 359.07 364.13 349.92" style="fill:#00CC99"></polygon><polygon points="385.68 341.81 387.81 346.12 392.56 346.81 389.12 350.17 389.93 354.91 385.68 352.67 381.42 354.91 382.24 350.17 378.79 346.81 383.55 346.12 385.68 341.81" style="fill:#00CC99"></polygon></g><g id="freepik--speech-bubble--inject-2"><path d="M357.44,103.66,361,92.6a34.47,34.47,0,1,1,27.77,19A32.42,32.42,0,0,1,368.9,103h0Z" style="fill:#fafafa"></path><path d="M357.44,103.66l.76-.06,2.21-.16,8.49-.58h0l0,0a31.78,31.78,0,0,0,15,7.76,34.52,34.52,0,0,0,5.26.75l2.8.11c.94,0,1.91-.11,2.88-.16a34.27,34.27,0,0,0,22.7-11.57A33.9,33.9,0,0,0,424.65,87a34.83,34.83,0,0,0,.86-15.51,30.62,30.62,0,0,0-.92-3.93,16.68,16.68,0,0,0-.65-1.92c-.25-.64-.47-1.28-.74-1.91A35.35,35.35,0,0,0,419,56.57a32.46,32.46,0,0,0-2.71-3.14,16.78,16.78,0,0,0-1.5-1.42c-.51-.45-1-.94-1.54-1.35l-1.64-1.22-.82-.6-.88-.52-1.73-1c-.59-.33-1.21-.58-1.81-.88a34,34,0,0,0-29.38.14,34.2,34.2,0,0,0-17.19,18.75c-.17.46-.33.92-.49,1.37a8.68,8.68,0,0,0-.43,1.37c-.23.92-.45,1.83-.67,2.72a48,48,0,0,0-.62,5.27,34.44,34.44,0,0,0,3.5,16.53l0,0v0l-2.68,8.18-.71,2.12c-.16.48-.25.73-.25.73s.06-.23.21-.7l.64-2.1,2.57-8.29v.08A34.3,34.3,0,0,1,357.23,76a46.43,46.43,0,0,1,.59-5.33c.22-.9.45-1.82.67-2.75a10.07,10.07,0,0,1,.42-1.39c.17-.46.33-.92.5-1.39a34.58,34.58,0,0,1,47.16-19.21c.61.29,1.24.55,1.84.89l1.76,1.05.88.53.84.61,1.66,1.23c.55.43,1.05.92,1.57,1.37a18.86,18.86,0,0,1,1.52,1.44,33.6,33.6,0,0,1,2.75,3.2,35.65,35.65,0,0,1,4.29,7.21c.27.64.49,1.3.74,1.94a16.76,16.76,0,0,1,.67,2,30.72,30.72,0,0,1,.92,4,35.12,35.12,0,0,1-.88,15.74,34.37,34.37,0,0,1-7.19,13,34.74,34.74,0,0,1-23,11.66c-1,0-2,.14-2.92.14l-2.83-.12a35.33,35.33,0,0,1-5.31-.78,31.67,31.67,0,0,1-15-7.94l.08,0-8.57.45-2.18.1C357.68,103.66,357.44,103.66,357.44,103.66Z" style="fill:#263238"></path><polygon points="372.31 76 377.98 71.08 387.53 80.89 408.95 63.05 413.48 68.7 386.04 91.04 372.31 76" style="fill:#00CC99"></polygon></g><g id="freepik--Clipboard--inject-2"><path d="M298.11,349.49,106.35,392.23A8.63,8.63,0,0,1,96,385.68L33.81,106.43a8.62,8.62,0,0,1,6.55-10.3L232.12,53.39a8.63,8.63,0,0,1,10.31,6.55l62.23,279.25A8.62,8.62,0,0,1,298.11,349.49Z" style="fill:#e0e0e0"></path><path d="M298.11,349.49l.64-.18a9.72,9.72,0,0,0,1.79-.79,8.82,8.82,0,0,0,2.43-2.11,8.59,8.59,0,0,0,1.75-4,8.26,8.26,0,0,0,0-2.67c-.16-.93-.41-1.91-.63-2.93-.46-2-1-4.28-1.5-6.7q-1.63-7.27-3.75-16.73c-5.63-25.17-13.77-61.59-23.83-106.6-5-22.5-10.52-47.15-16.43-73.62q-4.42-19.84-9.15-41-2.35-10.58-4.78-21.45c-.82-3.62-1.63-7.27-2.46-10.94A8.4,8.4,0,0,0,234,53.38a11.66,11.66,0,0,0-2.78.4l-2.8.62-5.63,1.26-11.36,2.53-23.12,5.16L140.67,74,40.43,96.32A8.44,8.44,0,0,0,33.94,106c.91,4.25,1.89,8.51,2.82,12.75Q39.6,131.45,42.39,144l11,49.41C60.61,225.8,67.57,257,74.2,286.8s12.92,58,18.82,84.51q1.1,5,2.19,9.84c.37,1.62.7,3.26,1.09,4.85a8.47,8.47,0,0,0,2.48,4.07,8.6,8.6,0,0,0,4.24,2.08,9,9,0,0,0,2.37.07c.78-.1,1.57-.29,2.35-.47l9.31-2.07,35.33-7.86L259,358.13l29-6.42,7.54-1.66,2.57-.56-2.56.6-7.54,1.7-29,6.49-106.6,23.83L117.12,390l-9.31,2.08c-.78.17-1.56.37-2.38.48a9.21,9.21,0,0,1-2.46-.08,8.81,8.81,0,0,1-7-6.39c-.4-1.61-.73-3.23-1.1-4.85q-1.09-4.87-2.2-9.84c-5.9-26.47-12.21-54.75-18.85-84.51s-13.6-61-20.83-93.39l-11-49.4q-2.79-12.54-5.63-25.27c-.94-4.24-1.91-8.48-2.83-12.77a8.84,8.84,0,0,1,6.81-10.13L140.59,73.58,188.26,63l23.11-5.15,11.36-2.53L228.37,54l2.8-.62A11.91,11.91,0,0,1,234,53a8.79,8.79,0,0,1,8.5,6.63c.82,3.68,1.64,7.32,2.45,10.95Q247.4,81.46,249.77,92q4.69,21.15,9.13,41c5.89,26.47,11.37,51.12,16.38,73.63,10,45,18.1,81.45,23.7,106.63,1.39,6.29,2.63,11.89,3.71,16.73.53,2.43,1,4.66,1.48,6.71.22,1,.47,2,.62,2.93a8.16,8.16,0,0,1,0,2.7,8.63,8.63,0,0,1-1.78,4.07,9,9,0,0,1-2.45,2.11,8.84,8.84,0,0,1-1.82.77Z" style="fill:#263238"></path><g style="opacity:0.30000000000000004"><polygon points="116.07 382.34 290.79 342.4 285.27 308.16 275.36 288.97 108.22 354.62 116.07 382.34"></polygon></g><g style="opacity:0.30000000000000004"><polygon points="189.02 63.63 195.63 74.54 196.91 80.33 192.43 81.33 189.02 63.63"></polygon></g><polygon points="43.76 108.05 104.38 380.05 294.39 337.71 283.55 289.07 233.77 65.7 43.76 108.05" style="fill:#fff"></polygon><path d="M43.76,108.05l190-42.51.16,0,0,.17c16.86,75.59,37.89,169.92,60.65,272v0l0,.21-.2,0-190,42.33-.18,0,0-.19c-35.69-160.62-60.07-270.38-60.44-272,.37,1.66,24.91,111.39,60.81,272l-.23-.14,190-42.37-.16.25v0c-22.73-102.06-43.74-196.39-60.57-272l.2.13Z" style="fill:#263238"></path><path d="M99.35,66H185.2a6.33,6.33,0,0,1,6.33,6.33V94.59a0,0,0,0,1,0,0H93a0,0,0,0,1,0,0V72.35A6.33,6.33,0,0,1,99.35,66Z" transform="translate(-14.06 32.87) rotate(-12.56)" style="fill:#263238"></path><polygon points="149.07 53.15 124.6 58.6 132.13 78.94 150.56 74.83 149.07 53.15" style="fill:#263238"></polygon><path d="M181.06,57c0,.11-18.71,4.38-41.84,9.54S97.3,75.81,97.27,75.7s18.71-4.38,41.86-9.54S181,56.92,181.06,57Z" style="fill:#455a64"></path><path d="M98.46,100c-.11,0-1.08-3.9-2.16-8.76s-1.88-8.83-1.76-8.86,1.08,3.9,2.16,8.77S98.57,100,98.46,100Z" style="fill:#455a64"></path><path d="M188.87,77.64a80.19,80.19,0,0,1-2-8,80.32,80.32,0,0,1-1.58-8,80.19,80.19,0,0,1,2,7.95A80.32,80.32,0,0,1,188.87,77.64Z" style="fill:#455a64"></path><path d="M185.06,82.39c0,.11-19.21,4.49-42.95,9.78s-43,9.5-43.05,9.38,19.2-4.49,43-9.78S185,82.28,185.06,82.39Z" style="fill:#455a64"></path><path d="M134.45,161.51c0,.12-12.95,3.1-29,6.68s-29,6.37-29.07,6.26,13-3.1,29-6.67S134.42,161.4,134.45,161.51Z" style="fill:#263238"></path><path d="M231.16,150.62c0,.12-33.87,7.77-75.7,17.09s-75.78,16.79-75.8,16.68,33.86-7.77,75.71-17.09S231.14,150.51,231.16,150.62Z" style="fill:#263238"></path><path d="M233.25,160c0,.11-33.88,7.76-75.71,17.09s-75.77,16.79-75.8,16.67,33.87-7.76,75.71-17.08S233.22,159.86,233.25,160Z" style="fill:#263238"></path><path d="M235.33,169.32c0,.11-33.87,7.76-75.7,17.08s-75.78,16.8-75.81,16.68,33.87-7.76,75.72-17.09S235.3,169.21,235.33,169.32Z" style="fill:#263238"></path><path d="M237.41,178.67c0,.11-33.87,7.76-75.7,17.08s-75.78,16.79-75.8,16.68,33.86-7.76,75.71-17.09S237.39,178.55,237.41,178.67Z" style="fill:#263238"></path><path d="M239.5,188c0,.12-33.88,7.77-75.71,17.09S88,221.89,88,221.78s33.87-7.76,75.71-17.09S239.47,187.9,239.5,188Z" style="fill:#263238"></path><path d="M117.37,253.81a1.56,1.56,0,0,1-.09-.31l-.22-.89c-.19-.81-.46-1.94-.79-3.35-.67-2.89-1.61-6.95-2.73-11.81l.22.14-16.4,3.68s.3-.47.16-.25h0v0l0,.07,0,.14.06.28.13.56.24,1.11c.17.74.33,1.47.49,2.2.32,1.44.64,2.86.94,4.24.61,2.75,1.18,5.35,1.71,7.74l-.22-.14,11.85-2.55,3.37-.7.9-.17.32-.06s-.08,0-.28.09l-.85.21-3.3.78L101,257.65l-.18,0,0-.18-1.74-7.73c-.31-1.38-.63-2.8-1-4.24-.16-.73-.33-1.46-.49-2.2-.09-.36-.17-.74-.25-1.11l-.13-.56-.06-.28,0-.14,0-.07v-.05h0c-.14.23.19-.3.16-.25l16.41-3.63.18,0,0,.18,2.58,12c.29,1.4.52,2.52.69,3.32.07.36.12.64.17.87A.89.89,0,0,1,117.37,253.81Z" style="fill:#263238"></path><rect x="124.53" y="226" width="117.22" height="9.78" transform="translate(-45.84 45.36) rotate(-12.56)" style="fill:#e0e0e0"></rect><path d="M123.71,282.27a2.31,2.31,0,0,1-.09-.32c-.06-.23-.13-.53-.22-.89-.19-.81-.46-1.93-.79-3.34-.67-2.9-1.61-7-2.73-11.82l.22.14-16.4,3.68c0,.06.3-.47.16-.24h0v.05l0,.07,0,.14.06.28.13.56c.08.38.16.75.25,1.12l.48,2.19c.32,1.45.64,2.86.94,4.24.61,2.75,1.18,5.35,1.71,7.74l-.22-.14,11.86-2.54,3.36-.7.9-.18a1.39,1.39,0,0,1,.32-.05l-.27.08-.86.21-3.3.79-11.93,2.75-.18,0,0-.18-1.74-7.73c-.31-1.38-.63-2.8-1-4.24-.16-.72-.33-1.46-.49-2.19-.08-.37-.17-.74-.25-1.12l-.13-.56-.06-.28,0-.14v-.12h0l.16-.26L120,265.69l.18,0,0,.17c1.06,4.93,2,9,2.58,12,.29,1.4.52,2.52.69,3.32.07.36.12.64.17.87A.92.92,0,0,1,123.71,282.27Z" style="fill:#263238"></path><rect x="130.87" y="254.45" width="117.22" height="9.78" transform="translate(-51.88 47.43) rotate(-12.56)" style="fill:#e0e0e0"></rect><path d="M130.05,310.72s0-.12-.09-.32-.13-.53-.22-.89c-.19-.81-.46-1.93-.79-3.34-.67-2.89-1.61-7-2.73-11.82l.22.14L110,298.17c0,.06.3-.47.16-.24h0V298l0,.07,0,.14.06.28.13.56c.08.38.16.75.25,1.12l.48,2.19c.32,1.45.64,2.86.94,4.24l1.71,7.74-.22-.13,11.86-2.55,3.36-.7.9-.18a1.47,1.47,0,0,1,.32,0l-.27.08-.86.21-3.3.79-11.93,2.75-.18,0,0-.18c-.53-2.38-1.12-5-1.74-7.73-.31-1.38-.63-2.79-1-4.24-.16-.72-.33-1.45-.49-2.19-.08-.37-.17-.74-.25-1.11l-.12-.56-.07-.28,0-.15V298h0c-.14.22.19-.31.16-.25l16.41-3.63.18,0,0,.18,2.58,12c.29,1.4.52,2.52.69,3.33.07.35.13.63.17.86A.94.94,0,0,1,130.05,310.72Z" style="fill:#263238"></path><rect x="137.21" y="282.91" width="117.22" height="9.78" transform="translate(-57.91 49.49) rotate(-12.56)" style="fill:#e0e0e0"></rect><polygon points="101.61 247.94 103.33 245.23 108.44 248.07 115.02 238.15 117.56 239.91 109.08 252.41 101.61 247.94" style="fill:#00CC99"></polygon><polygon points="107.74 275.44 109.46 272.73 114.57 275.57 121.14 265.65 123.69 267.41 115.2 279.9 107.74 275.44" style="fill:#00CC99"></polygon><polygon points="114.03 303.63 115.75 300.93 120.85 303.77 127.43 293.85 129.97 295.6 121.49 308.1 114.03 303.63" style="fill:#00CC99"></polygon><path d="M166.4,339c0,.12-9.64,2.37-21.58,5s-21.64,4.72-21.66,4.61,9.63-2.36,21.57-5S166.37,338.9,166.4,339Z" style="fill:#263238"></path><path d="M187.94,333.86a78.64,78.64,0,0,1-7.94,2,81.52,81.52,0,0,1-8,1.57,79.72,79.72,0,0,1,7.93-2C184.32,334.46,187.92,333.75,187.94,333.86Z" style="fill:#263238"></path><path d="M259.28,311.41c0,.11-8.67,2.15-19.41,4.54s-19.48,4.24-19.5,4.13,8.66-2.14,19.41-4.54S259.26,311.3,259.28,311.41Z" style="fill:#263238"></path><path d="M250,337.73s.09-.27.19-.79a5.25,5.25,0,0,0-.12-2.31,20.7,20.7,0,0,0-1.38-3.45,11.49,11.49,0,0,1-1.37-4.76,7.35,7.35,0,0,1,2.54-5.39,6.92,6.92,0,0,1,6.64-1.23,6.73,6.73,0,0,1,3.16,2.07,3.21,3.21,0,0,1,.75,1.87,1.73,1.73,0,0,1-1.17,1.69,14.17,14.17,0,0,1-2,.49l-2,.41c-1.34.27-2.7.51-4.1.69a29.91,29.91,0,0,1-8.18.05,5,5,0,0,0-3.59.58,12.49,12.49,0,0,0-2.16,2.93,3.57,3.57,0,0,1-1.4,1.24,2.52,2.52,0,0,1-1.83.08,16.31,16.31,0,0,1-2.92-1.68,3.34,3.34,0,0,0-1.41-.53,2,2,0,0,0-1.34.33,7.83,7.83,0,0,0-1.69,2.22,5.27,5.27,0,0,1-4.22,2.44,5,5,0,0,1-3.5-1.24,5.17,5.17,0,0,1-1.39-1.92,3.45,3.45,0,0,1-.23-.79s.09.27.31.76a5.07,5.07,0,0,0,1.41,1.82,4.84,4.84,0,0,0,3.38,1.14,5,5,0,0,0,4-2.37,8,8,0,0,1,1.76-2.32,2.35,2.35,0,0,1,1.56-.41,4,4,0,0,1,1.54.57,16.87,16.87,0,0,0,2.86,1.63,2.18,2.18,0,0,0,1.57-.07,3,3,0,0,0,1.23-1.13,12.7,12.7,0,0,1,2.24-3,3.85,3.85,0,0,1,1.88-.7,9.46,9.46,0,0,1,2,0,30.05,30.05,0,0,0,8.09-.05c1.38-.18,2.73-.43,4.07-.69l2-.4a16.49,16.49,0,0,0,1.9-.47,1.32,1.32,0,0,0,.92-1.3,2.89,2.89,0,0,0-.66-1.63,6.44,6.44,0,0,0-3-2,6.6,6.6,0,0,0-6.3,1.14,7,7,0,0,0-2.46,5.12,11.49,11.49,0,0,0,1.28,4.67,19.73,19.73,0,0,1,1.33,3.5,5.25,5.25,0,0,1,.05,2.36A3.67,3.67,0,0,1,250,337.73Z" style="fill:#263238"></path><path d="M270.67,324.93a3.23,3.23,0,0,1-.52.16l-1.52.36-5.58,1.29c-4.7,1.1-11.2,2.64-18.35,4.45s-13.6,3.56-18.25,4.84l-5.52,1.52-1.51.4a3.35,3.35,0,0,1-.53.12,2.19,2.19,0,0,1,.51-.2l1.48-.47c1.29-.41,3.16-1,5.48-1.65,4.65-1.36,11.08-3.15,18.24-5s13.66-3.31,18.39-4.32c2.36-.51,4.28-.91,5.61-1.17l1.53-.29A3,3,0,0,1,270.67,324.93Z" style="fill:#263238"></path><rect x="111.66" y="113.97" width="79.57" height="14.95" transform="translate(-22.79 35.85) rotate(-12.56)" style="fill:#e0e0e0"></rect></g></svg>
